<svg xmlns="http://www.w3.org/2000/svg" viewBox="0 0 100 100">
    <g fill-rule="evenodd" stroke="#aaa" stroke-width="5">
        <path d="M 10 50 A 40 40 180 1 1 90 50 40 40 180 1 1 10 50 M 25 50 A 25 25 180 1 1 75 50, 25 25 180 1 1 25 50"/>
        <rect width="15" height="20" x="2" y="40"/>
        <rect width="15" height="20" x="2" y="40" transform="rotate(45, 50, 50)"/>
        <rect width="15" height="20" x="2" y="40" transform="rotate(90, 50, 50)"/>
        <rect width="15" height="20" x="2" y="40" transform="rotate(135, 50, 50)"/>
        <rect width="15" height="20" x="2" y="40" transform="rotate(180, 50, 50)"/>
        <rect width="15" height="20" x="2" y="40" transform="rotate(225, 50, 50)"/>
        <rect width="15" height="20" x="2" y="40" transform="rotate(270, 50, 50)"/>
        <rect width="15" height="20" x="2" y="40" transform="rotate(315, 50, 50)"/>
    </g>
    <g fill-rule="evenodd" fill="#555">
        <path d="M 10 50 A 40 40 180 1 1 90 50 40 40 180 1 1 10 50 M 25 50 A 25 25 180 1 1 75 50, 25 25 180 1 1 25 50"/>
        <rect width="15" height="20" x="2" y="40"/>
        <rect width="15" height="20" x="2" y="40" transform="rotate(45, 50, 50)"/>
        <rect width="15" height="20" x="2" y="40" transform="rotate(90, 50, 50)"/>
        <rect width="15" height="20" x="2" y="40" transform="rotate(135, 50, 50)"/>
        <rect width="15" height="20" x="2" y="40" transform="rotate(180, 50, 50)"/>
        <rect width="15" height="20" x="2" y="40" transform="rotate(225, 50, 50)"/>
        <rect width="15" height="20" x="2" y="40" transform="rotate(270, 50, 50)"/>
        <rect width="15" height="20" x="2" y="40" transform="rotate(315, 50, 50)"/>
    </g>
</svg>